<svg width="31" height="18" viewBox="0 0 31 18" fill="none" xmlns="http://www.w3.org/2000/svg">
<path d="M8.60219 9.3C8.60219 13.22 7.22219 15.18 4.46219 15.18C1.64885 15.18 0.242188 13.22 0.242188 9.3V7.28C0.242188 3.36 1.64885 1.4 4.46219 1.4C7.22219 1.4 8.60219 3.36 8.60219 7.28V9.3ZM6.36219 7.28C6.36219 4.73333 5.72885 3.46 4.46219 3.46C3.15552 3.46 2.50219 4.73333 2.50219 7.28V9.3C2.50219 11.8467 3.15552 13.12 4.46219 13.12C5.72885 13.12 6.36219 11.8467 6.36219 9.3V7.28ZM19.0738 15H16.8338V5.2C16.5271 5.82667 16.1338 6.31333 15.6538 6.66L14.4338 5.86C15.6204 4.1 16.4071 2.68 16.7938 1.6H19.0738V15ZM26.2088 17.08H24.9088L29.3288 0.4H30.6288L26.2088 17.08Z" fill="#84BD3A"/>
</svg>
