<svg width="34" height="18" viewBox="0 0 34 18" fill="none" xmlns="http://www.w3.org/2000/svg">
<path d="M8.60219 9.3C8.60219 13.22 7.22219 15.18 4.46219 15.18C1.64885 15.18 0.242188 13.22 0.242188 9.3V7.28C0.242188 3.36 1.64885 1.4 4.46219 1.4C7.22219 1.4 8.60219 3.36 8.60219 7.28V9.3ZM6.36219 7.28C6.36219 4.73333 5.72885 3.46 4.46219 3.46C3.15552 3.46 2.50219 4.73333 2.50219 7.28V9.3C2.50219 11.8467 3.15552 13.12 4.46219 13.12C5.72885 13.12 6.36219 11.8467 6.36219 9.3V7.28ZM14.7338 5.32C14.9071 2.70667 16.1671 1.4 18.5138 1.4C21.0071 1.4 22.2538 2.62 22.2538 5.06C22.2538 5.48667 22.2138 5.88 22.1338 6.24C22.0671 6.6 21.9538 6.94667 21.7938 7.28C21.6471 7.61333 21.4471 7.94 21.1938 8.26C20.9538 8.56667 20.6604 8.88667 20.3138 9.22C19.9938 9.51333 19.6538 9.8 19.2938 10.08C18.9471 10.36 18.6204 10.6467 18.3138 10.94C18.0071 11.2333 17.7404 11.5467 17.5138 11.88C17.3004 12.2 17.1738 12.5533 17.1338 12.94H22.3138V15H14.5938V13.2C14.7004 12.6267 14.9271 12.0667 15.2738 11.52C15.6338 10.9733 16.0271 10.4733 16.4538 10.02C16.8804 9.55333 17.3071 9.13333 17.7338 8.76C18.1604 8.38667 18.5071 8.08 18.7738 7.84C19.2538 7.41333 19.5871 7.01333 19.7738 6.64C19.9738 6.25333 20.0738 5.76667 20.0738 5.18C20.0738 4.03333 19.5538 3.46 18.5138 3.46C17.9138 3.46 17.4738 3.63333 17.1938 3.98C16.9138 4.31333 16.7404 4.82 16.6738 5.5L14.7338 5.32ZM29.0603 17.08H27.7603L32.1803 0.4H33.4803L29.0603 17.08Z" fill="#84BD3A"/>
</svg>
