<svg width="34" height="18" viewBox="0 0 34 18" fill="none" xmlns="http://www.w3.org/2000/svg">
<path d="M8.60219 9.3C8.60219 13.22 7.22219 15.18 4.46219 15.18C1.64885 15.18 0.242188 13.22 0.242188 9.3V7.28C0.242188 3.36 1.64885 1.4 4.46219 1.4C7.22219 1.4 8.60219 3.36 8.60219 7.28V9.3ZM6.36219 7.28C6.36219 4.73333 5.72885 3.46 4.46219 3.46C3.15552 3.46 2.50219 4.73333 2.50219 7.28V9.3C2.50219 11.8467 3.15552 13.12 4.46219 13.12C5.72885 13.12 6.36219 11.8467 6.36219 9.3V7.28ZM14.8738 5.32C15.0071 2.70667 16.2738 1.4 18.6738 1.4C21.0071 1.4 22.1738 2.64667 22.1738 5.14C22.1738 6.51333 21.7338 7.46667 20.8538 8C21.9471 8.64 22.4938 9.72 22.4938 11.24C22.4938 13.8667 21.2471 15.18 18.7538 15.18C16.4071 15.18 15.0271 13.98 14.6138 11.58L16.6338 11.08C16.8471 12.44 17.5538 13.12 18.7538 13.12C19.7404 13.12 20.2338 12.4267 20.2338 11.04C20.2338 9.66667 19.8738 8.98 19.1538 8.98H17.7738V7.12H19.0538C19.7338 7.12 20.0738 6.48667 20.0738 5.22C20.0738 4.04667 19.5938 3.46 18.6338 3.46C17.5004 3.46 16.9071 4.14 16.8538 5.5L14.8738 5.32ZM28.5916 17.08H27.2916L31.7116 0.4H33.0116L28.5916 17.08Z" fill="#84BD3A"/>
</svg>
